<svg width="982" height="940" viewBox="0 0 982 940" fill="none" xmlns="http://www.w3.org/2000/svg">
<path d="M593.744 892.863C341.944 867.254 133.537 682.719 42.217 447.5C-49.103 212.281 294.718 11.91 542.362 0.430027C790.006 -11.05 981.162 209.031 981.162 459.707C981.162 710.383 845.54 918.472 593.744 892.863Z" fill="url(#paint0_linear_1_3)"/>
<path d="M574.417 854.068C574.537 853.998 575.286 854.987 576.393 856.934C577.924 859.705 579.19 862.615 580.175 865.624C582.811 873.203 584.465 884.392 583.484 896.594C582.521 906.947 580.522 917.177 577.517 927.131C575.29 934.757 573.652 939.386 573.369 939.308C573.057 939.222 574.163 934.432 575.99 926.731C577.77 919.031 580.31 908.379 581.261 896.431C582.171 886.244 581.294 875.976 578.67 866.09C576.546 858.535 574.068 854.253 574.417 854.068Z" fill="white"/>
<path d="M581.936 793.009C582.076 792.949 582.982 794.609 584.494 797.664C586.006 800.719 588.127 805.177 590.637 810.736C595.617 821.855 602.317 837.42 607.183 855.49C609.465 863.985 611.084 872.644 612.027 881.39C612.797 888.536 612.964 895.733 612.527 902.907C612.245 907.739 611.604 912.543 610.608 917.28C609.872 920.626 609.289 922.429 609.158 922.399C608.746 922.319 610.566 914.953 610.952 902.834C611.433 890.739 609.845 873.934 605.026 856.069C600.207 838.204 593.791 822.619 589.189 811.362C586.871 805.729 584.997 801.17 583.7 798.018C582.433 794.854 581.795 793.074 581.936 793.009Z" fill="white"/>
<path d="M303.694 744.678C303.952 744.956 301.422 747.368 298.139 751.848C297.324 752.973 296.439 754.204 295.611 755.61C294.705 756.964 293.917 758.518 293.04 760.122C291.263 763.665 289.799 767.357 288.666 771.156C287.605 774.974 286.881 778.878 286.502 782.823C286.393 784.646 286.234 786.382 286.28 788.009C286.235 789.641 286.329 791.156 286.42 792.542C286.82 798.08 287.679 801.469 287.312 801.568C287.09 801.644 285.674 798.368 284.852 792.703C284.62 791.161 284.479 789.607 284.431 788.048C284.347 786.257 284.354 784.463 284.452 782.672C284.725 778.567 285.42 774.502 286.525 770.539C287.696 766.594 289.271 762.781 291.225 759.16C292.092 757.59 293.04 756.067 294.066 754.596C294.935 753.301 295.881 752.059 296.898 750.876C300.609 746.513 303.549 744.497 303.698 744.676" fill="white"/>
<path d="M309.632 764.227C309.819 764.527 308.409 765.604 306.568 767.666C305.497 768.869 304.533 770.164 303.687 771.534C302.679 773.217 301.839 774.995 301.178 776.842C300.557 778.704 300.122 780.622 299.878 782.569C299.698 784.17 299.659 785.783 299.761 787.39C299.94 790.147 300.386 791.866 300.053 791.99C299.814 792.09 298.811 790.517 298.197 787.603C297.855 785.892 297.731 784.145 297.828 782.403C297.968 780.265 298.384 778.154 299.064 776.123C299.781 774.104 300.756 772.186 301.964 770.416C302.962 768.983 304.138 767.683 305.464 766.547C307.745 764.619 309.509 763.998 309.632 764.227Z" fill="white"/>
<path d="M227.199 562.043C227.314 561.943 228.313 562.925 230.026 564.798C231.084 565.923 232.081 567.104 233.012 568.336C234.112 569.763 235.433 571.348 236.674 573.253C237.314 574.193 237.984 575.176 238.684 576.203C239.376 577.236 240.003 578.366 240.701 579.503C242.13 581.77 243.411 584.329 244.801 586.998C247.665 592.873 250.056 598.966 251.951 605.221C253.76 611.501 255.066 617.916 255.856 624.403C256.137 627.403 256.456 630.247 256.484 632.924C256.518 634.262 256.606 635.551 256.584 636.795C256.562 638.039 256.527 639.226 256.501 640.362C256.495 642.638 256.246 644.684 256.101 646.482C255.988 648.02 255.792 649.552 255.515 651.069C255.096 653.574 254.792 654.941 254.64 654.92C254.247 654.868 254.988 649.32 254.926 640.346C254.905 639.224 254.884 638.051 254.864 636.827C254.838 635.604 254.708 634.335 254.635 633.021C254.525 630.389 254.145 627.598 253.815 624.657C252.92 618.304 251.582 612.022 249.809 605.857C247.945 599.716 245.653 593.714 242.95 587.894C241.63 585.247 240.43 582.694 239.093 580.428C238.439 579.285 237.857 578.15 237.216 577.109C236.575 576.068 235.948 575.075 235.355 574.123C230.536 566.557 226.895 562.301 227.199 562.043Z" fill="white"/>
<path d="M252.463 572.494C252.653 572.325 255.215 574.722 258.475 579.341C260.37 582.057 262.058 584.911 263.525 587.88C265.303 591.531 266.787 595.319 267.962 599.206C269.088 603.108 269.901 607.094 270.393 611.125C270.774 614.415 270.908 617.728 270.793 621.038C270.567 626.685 269.718 630.09 269.468 630.051C269.109 630.007 269.397 626.56 269.215 621.036C269.105 617.808 268.818 614.589 268.356 611.393C267.76 607.492 266.914 603.632 265.824 599.839C264.677 596.062 263.29 592.363 261.669 588.764C260.32 585.829 258.812 582.969 257.15 580.199C254.3 575.464 252.187 572.727 252.463 572.494Z" fill="white"/>
<path d="M163.996 755.041L162.054 751.076L107.985 792.383L131.573 830.591L185.395 785.217L163.996 755.041Z" fill="#46A7D0"/>
<path d="M110.251 793.266L130.973 829.097L132.298 828.506L113.845 795.003L110.251 793.266Z" fill="#D7D4D4"/>
<path d="M162.928 754.256L110.251 793.265C110.388 793.591 110.596 793.882 110.861 794.116C111.125 794.351 111.439 794.523 111.779 794.619C112.424 794.919 113.135 795.051 113.845 795.004L169.225 757.106C167.707 756.775 166.243 756.235 164.875 755.5C164.264 755.029 163.612 754.612 162.928 754.256" fill="#46A7D0"/>
<path d="M170.579 755.577L112.855 794.128L131.603 829.654L134.623 834.577L192.348 791.857C192.348 791.857 186.268 782.784 182.618 777.306C178.968 771.828 171.802 758.907 171.412 758.077C171.079 757.263 170.801 756.428 170.579 755.577Z" fill="#46A7D0"/>
<path d="M646.612 489.427L648.242 486.097L693.642 520.784L673.842 552.869L628.642 514.766L646.612 489.427Z" fill="#46A7D0"/>
<path d="M691.743 521.525L674.343 551.613L673.229 551.118L688.729 522.985L691.743 521.525Z" fill="#D7D4D4"/>
<path d="M647.509 488.766L691.743 521.524C691.628 521.798 691.453 522.042 691.231 522.239C691.009 522.435 690.745 522.58 690.46 522.661C689.918 522.913 689.321 523.024 688.724 522.984L642.22 491.159C643.495 490.882 644.725 490.428 645.874 489.81C646.387 489.414 646.934 489.065 647.509 488.766" fill="#F5F3F3"/>
<path d="M641.084 489.877L689.556 522.248L673.814 552.077L671.278 556.208L622.802 520.341C622.802 520.341 627.909 512.721 630.973 508.121C634.037 503.521 640.057 492.671 640.384 491.977C640.664 491.293 640.898 490.592 641.084 489.877Z" fill="#46A7D0"/>
<path d="M99.444 426.996C98.4756 427.694 97.7766 428.703 97.4645 429.855C97.1524 431.008 97.2462 432.232 97.73 433.323C99.445 437.278 106.96 449.011 117.113 448.615C117.528 448.596 104.322 426.996 104.322 426.996H99.444Z" fill="#FF7B5B"/>
<path d="M83.913 643.292C83.913 643.292 71.218 631.952 67.153 633.984C62.188 636.466 33.765 664.311 34.876 677.428C35.332 682.801 41.587 678.198 52.734 666.637C63.881 655.076 77.922 660.032 77.922 660.032L83.913 643.292Z" fill="#46A7D0"/>
<path d="M114.754 662.416L99.432 653.223C99.432 653.223 59.706 690.462 65.912 695.423C70.62 699.188 73.387 695.811 84.535 684.25C95.683 672.689 109.804 679.343 109.804 679.343L114.754 662.416Z" fill="#46A7D0"/>
<path d="M208.379 539.901L211.255 580.707L147.455 564.089L208.379 539.901Z" fill="#F3A683"/>
<path d="M147.455 565.493C147.455 565.493 203.261 569.01 210.692 566.531C210.692 566.531 221.598 673.657 202.192 685.214C182.786 696.771 139.237 679.847 139.237 679.847L150.995 656.729L176.347 655.078V613.793L174.528 614.205L147.455 565.493Z" fill="#112129"/>
<path d="M77.501 638.565C77.501 638.565 63.464 644.346 68.001 658.382C68.001 658.382 115.917 695.949 139.232 687.282C152.301 682.423 166.331 645.367 176.148 613.708L210.692 566.531C210.692 566.531 194.4 567.346 188.965 567.325C178.577 567.286 147.455 565.493 147.455 565.493C147.455 565.493 131.201 650.538 125.406 652.602C119.611 654.666 77.501 638.565 77.501 638.565Z" fill="#22343D"/>
<path d="M160.46 458.828C160.46 458.828 193.905 427.452 199.685 419.198C205.465 410.944 217.854 383.278 233.127 371.719L225.696 356.031C225.696 356.031 230.24 353.555 233.127 360.158C233.127 360.158 243.86 338.698 246.339 339.104C248.818 339.51 241.386 355.618 241.386 355.618C241.386 355.618 251.71 340.755 254.599 341.169C257.488 341.583 247.167 357.877 247.167 357.877C247.167 357.877 258.725 344.472 260.379 346.123C262.033 347.774 251.295 357.877 251.295 357.877C251.295 357.877 262.855 351.241 264.095 353.428C265.335 355.615 252.534 361.398 252.534 361.398C252.534 361.398 251.295 370.898 243.452 375.021C243.452 375.021 227.92 416.98 213.881 430.603L168.781 477.466L160.46 458.828Z" fill="#FFC6B2"/>
<path d="M120.536 475.089C120.536 475.089 88.846 508.235 80.536 513.936C72.226 519.637 44.446 531.765 32.744 546.93L17.124 539.352C17.124 539.352 14.605 543.869 21.184 546.819C21.184 546.819 -0.386 557.352 0.00500046 559.834C0.396 562.316 16.565 555.034 16.565 555.034C16.565 555.034 1.6 565.22 1.991 568.111C2.382 571.002 18.769 560.835 18.769 560.835C18.769 560.835 5.255 572.268 6.892 573.934C8.529 575.6 18.732 564.965 18.732 564.965C18.732 564.965 11.986 576.465 14.166 577.719C16.346 578.973 22.242 566.235 22.242 566.235C22.242 566.235 31.747 565.089 35.951 557.281C35.951 557.281 75.699 541.468 89.456 527.559L138.92 492.516L120.536 475.089Z" fill="#FFC6B2"/>
<path d="M132.416 461.879L116.388 477.567L120.453 495.252C120.453 495.252 136.244 533.152 138.631 542.404C142.342 556.783 136.34 578.704 136.34 578.704C136.34 578.704 163.11 576.481 187.468 575.656C211.826 574.831 219.788 566.99 219.788 566.99C219.788 566.99 198.673 496.66 184.088 477C169.503 457.34 164.206 451.19 164.206 451.19L142.737 455.882L132.416 461.879Z" fill="white"/>
<path d="M179.45 474.682L196.15 464.013C196.15 464.013 198.705 452.582 178.566 439.099L154.95 453.899L179.45 474.682Z" fill="white"/>
<path d="M119.766 476.327C110.614 477.611 93.88 500.812 92.014 500.768C92.014 500.768 103.789 519.981 113.114 520.605C113.114 520.605 154.161 471.505 119.764 476.327" fill="white"/>
<path d="M152.084 461.23C152.084 461.23 138.777 451.288 139.238 447.325C139.355 446.325 141.2 444.706 141.679 443.267C144.259 435.527 131.819 415.583 124.179 411.379C118.166 408.073 120.801 407.779 108.146 415.3C95.491 422.821 102.697 435.823 108.348 442.548C113.691 448.905 119.809 451.628 125.314 452.087L133.141 469.47L152.084 461.23Z" fill="#FFC6B2"/>
<path d="M128.072 475.031C125.555 468.857 130.321 461.082 138.718 457.657C147.115 454.232 155.963 456.459 158.485 462.629C161.007 468.799 152.55 478.078 147.833 480.002C143.116 481.926 130.587 481.201 128.072 475.031Z" fill="#FFC6B2"/>
<path d="M108.349 442.544C108.349 442.544 104.034 442.31 103.554 445.186C103.074 448.062 111.466 448.063 114.583 445.905L108.349 442.544Z" fill="#FFC6B2"/>
<path d="M110.507 445.185C109.687 439.985 104.148 436.123 104.424 431.059C107.079 431.08 108.784 427.792 107.576 424.982C107.1 423.882 106.295 422.933 105.776 421.843C105.257 420.753 105.126 419.33 105.914 418.714C106.323 418.46 106.795 418.325 107.276 418.324C111.212 417.924 117.956 419.1 121.576 417.757C125.025 416.479 128.721 413.993 128.362 409.768C128.049 406.089 124.799 403.106 121.815 400.852C120.105 399.56 115.215 396.181 113.376 396.488C110.562 396.956 109.876 400.71 109.676 403.851C108.782 403.024 107.612 402.561 106.394 402.552C105.176 402.543 103.999 402.989 103.093 403.802C101.389 405.329 100.579 407.751 99.833 410.09C99.087 412.429 98.295 414.859 96.606 416.413C95.033 417.861 92.541 418.957 92.87 421.42C93.258 424.356 97.094 425.4 98.87 427.903C98.433 427.289 98.063 431.209 98.315 431.873C99.072 433.873 100.96 435.2 102.326 436.731C105.234 439.995 106.657 443.281 110.51 445.186" fill="#FF7B5B"/>
<path d="M134.619 433.301L124.785 438.386C124.785 438.386 136.597 446.959 134.619 433.301Z" fill="white"/>
<path d="M121.09 435.318C121.628 436.338 120.832 437.812 119.313 438.611C117.794 439.41 116.124 439.23 115.591 438.21C115.058 437.19 115.849 435.718 117.368 434.918C118.887 434.118 120.552 434.298 121.09 435.318Z" fill="#FFB2A0"/>
<path d="M135.45 425.511C135.988 426.531 135.192 428.005 133.673 428.804C132.154 429.603 130.484 429.423 129.951 428.403C129.418 427.383 130.209 425.911 131.728 425.111C133.247 424.311 134.912 424.491 135.45 425.511Z" fill="#FFB2A0"/>
<path d="M127.752 432.941C127.707 432.884 127.89 432.641 128.315 432.335C128.899 431.984 129.447 431.577 129.952 431.119C130.472 430.572 130.658 429.43 129.863 429.27C129.036 428.989 128.098 429.937 127.021 430.838L126.23 431.494C126.059 431.658 125.857 431.785 125.635 431.869C125.414 431.952 125.177 431.99 124.941 431.979C124.565 431.896 124.209 431.739 123.894 431.517C123.579 431.295 123.311 431.012 123.107 430.685C122.418 429.803 121.9 428.8 121.58 427.728C121.052 425.9 121.289 424.718 121.416 424.728C121.593 424.72 121.652 425.857 122.322 427.467C122.713 428.399 123.246 429.266 123.901 430.036C124.26 430.471 124.711 430.877 125.033 430.89C125.168 430.896 125.273 430.851 125.527 430.638L126.308 429.982C126.852 429.544 127.319 429.101 127.939 428.688C128.257 428.459 128.623 428.304 129.009 428.235C129.395 428.166 129.792 428.184 130.17 428.288C130.549 428.409 130.874 428.66 131.087 428.996C131.299 429.333 131.386 429.734 131.332 430.128C131.248 430.722 130.96 431.267 130.518 431.672C129.92 432.134 129.246 432.487 128.527 432.717C128.059 432.894 127.803 433.004 127.754 432.941" fill="#FF7B5B"/>
<path d="M125.315 452.087C125.315 452.087 131.588 452.127 134.992 450.027C132.705 452.455 129.655 454.026 126.351 454.479L125.315 452.087Z" fill="#FFA192"/>
<path d="M128.035 423.959C127.978 424.269 127.101 424.365 126.174 424.774C125.234 425.154 124.555 425.717 124.294 425.542C124.026 425.398 124.469 424.281 125.739 423.747C127.009 423.213 128.119 423.667 128.035 423.959Z" fill="#22343D"/>
<path d="M115.742 432.022C115.505 431.847 115.872 430.839 116.779 429.825C117.694 428.792 118.861 428.448 118.985 428.739C119.109 429.03 118.404 429.674 117.603 430.582C116.802 431.49 115.998 432.214 115.742 432.022Z" fill="#22343D"/>
<path d="M110.976 430.464C110.468 430.087 110.076 428.475 112.017 426.302C113.98 424.081 116.174 424.472 116.437 425.089C116.72 425.695 115.989 426.557 114.266 428.51C112.517 430.457 111.527 430.876 110.976 430.464Z" fill="#FF7B5B"/>
<path d="M121.303 421.906C121.018 421.38 121.332 419.849 123.862 418.782C126.428 417.679 128.138 418.896 128.118 419.527C128.118 420.155 127.147 420.595 124.893 421.566C122.618 422.52 121.607 422.479 121.303 421.906Z" fill="#FF7B5B"/>
<path d="M660.937 437.137C661.103 437.301 658.378 440.367 652.723 443.705C645.281 448.021 636.848 450.335 628.245 450.421C619.642 450.462 611.174 448.273 603.669 444.067C597.968 440.814 595.197 437.786 595.36 437.619C595.595 437.319 598.694 439.874 604.403 442.669C611.818 446.307 619.968 448.195 628.227 448.19C636.486 448.072 644.609 446.062 651.97 442.314C657.635 439.439 660.698 436.841 660.937 437.137Z" fill="#46A7D0"/>
<path d="M599.277 432.506C599.123 432.845 596.106 431.593 591.023 430.46C588.04 429.81 585.026 429.315 581.992 428.976C578.556 428.596 574.758 428.294 570.747 428.008C566.736 427.722 562.894 427.408 559.406 426.972C556.306 426.598 553.233 426.027 550.206 425.261C545.018 423.908 542.082 422.307 542.182 422.082C542.319 421.741 545.406 422.794 550.539 423.716C553.1 424.205 556.19 424.583 559.631 424.926C563.08 425.241 566.89 425.499 570.907 425.782C574.924 426.065 578.775 426.436 582.26 426.936C585.359 427.378 588.422 428.046 591.424 428.936C596.557 430.503 599.392 432.295 599.277 432.508" fill="#46A7D0"/>
<path d="M538.135 366.574C547.771 364.53 557.755 366.285 567.471 367.909C577.187 369.533 587.271 370.985 596.771 368.38C613.927 363.673 626.947 346.346 644.733 346.485C652.057 346.542 658.96 349.669 666.095 351.324C674.955 353.38 684.185 353.159 693.16 354.624C702.135 356.089 711.409 359.7 716.482 367.248C722.5 376.206 720.85 388.841 714.535 397.593C708.22 406.345 698.106 411.675 687.744 414.693C680.516 416.799 672.816 418.017 666.561 422.207C660.234 426.446 656.103 433.269 650.209 438.09C635.417 450.185 612.397 446.718 597.118 435.245C593.279 432.363 589.718 429.018 585.408 426.909C567.865 418.323 542.635 429.689 527.527 414.067C512.184 398.207 514.371 371.614 538.135 366.574Z" fill="#46A7D0"/>
<path d="M533.321 673.824C533.321 673.824 549.394 708.27 551.275 701.892C553.156 695.514 552.53 680.192 551.523 678.004C550.516 675.816 543.941 666.155 543.941 666.155L533.321 673.824Z" fill="#FFB2A0"/>
<path d="M649.544 395.275C651.031 397.175 650.038 395.134 651.722 397.881C658.722 397.637 663.422 391.716 663.422 391.716C663.422 391.716 674.531 392.01 674.403 390.026C674.275 388.042 663.754 388.781 663.754 388.781C663.754 388.781 674.886 385.281 674.275 383.54C673.664 381.799 660.816 387.359 660.816 387.359C660.816 387.359 673.78 379.31 671.864 378.023C669.948 376.736 657.472 383.761 657.472 383.761C657.472 383.761 668.316 374.851 666.691 373.703C665.066 372.555 650.026 384.146 650.026 384.146C650.246 378.444 646.155 378.644 646.155 378.644L646.324 392.567C647.472 393.377 648.55 394.283 649.544 395.275" fill="#FFC6B2"/>
<path d="M484.877 332.26C482.5 332.698 484.343 331.872 481.257 332.814C476.189 327.982 476.857 320.388 476.857 320.388C476.857 320.388 468.362 313.236 469.772 311.836C471.182 310.436 478.564 317.975 478.564 317.975C478.564 317.975 472.564 307.97 474.178 307.075C475.792 306.18 481.71 318.866 481.71 318.866C481.71 318.866 477.354 304.236 479.643 304.536C481.932 304.836 486.596 318.378 486.596 318.378C486.596 318.378 484.401 304.526 486.374 304.745C488.347 304.964 491.905 323.617 491.905 323.617C495.526 319.207 498.451 322.073 498.451 322.073L489.271 332.167C487.806 332.107 486.338 332.138 484.877 332.26" fill="#FFC6B2"/>
<path d="M542.537 390.418C539.463 389.913 532.031 394.853 528.312 402.903C526.23 407.409 524.798 411.983 527.187 419.313C528.312 422.76 530.667 423.192 531.193 424.736C531.857 426.691 529.657 432.853 529.657 432.853L538.431 436.396C539.001 432.163 539.647 427.904 543.962 426.066C545.621 425.495 547.246 424.827 548.827 424.066C552.937 421.71 555.133 416.556 556.821 412.337C558.081 409.188 550.244 391.683 542.537 390.418Z" fill="#FFC6B2"/>
<path d="M532.093 510.059L517.393 504.159C517.393 504.159 473.77 585.046 473.951 607.489C474.132 629.932 533.866 674.859 533.866 674.859L543.941 666.159C543.941 666.159 525.499 634.005 515.641 622.669C505.783 611.333 532.093 510.059 532.093 510.059Z" fill="#FFB2A0"/>
<path d="M605.077 602.2C605.077 602.2 637.475 586.829 630.965 585.472C624.455 584.115 609.229 585.983 607.136 587.165C605.043 588.347 595.936 595.68 595.936 595.68L605.077 602.2Z" fill="#FFC6B2"/>
<path d="M546.531 509.355L524.231 517.467C524.231 517.467 501.925 615.567 510.441 630.967C518.957 646.367 542.868 636.179 576.927 617.593L605.457 602.019L595.934 595.681C595.934 595.681 562.734 602.181 553.414 608.67C553.414 608.67 558.279 594.887 564.767 575.43C571.255 555.973 575.727 536.11 546.531 509.355Z" fill="#FFC6B2"/>
<path d="M519.084 442.525C519.084 436.008 521.184 431.294 527.7 431.294C534.216 431.294 543.229 433.579 543.229 440.094C543.229 446.609 538.093 457.203 531.572 457.203C525.051 457.203 519.084 449.046 519.084 442.525Z" fill="#FFC6B2"/>
<path d="M524.237 430.36C524.237 430.36 503.963 408.427 499.908 386.941C495.853 365.455 488.963 330.596 488.963 330.596L481.263 332.814C481.263 332.814 477.613 380.458 481.263 387.753C484.913 395.048 502.739 443.627 508.163 456.384L524.237 430.36Z" fill="#FFC6B2"/>
<path d="M546.008 447.454C546.008 447.454 547.567 440.631 573.198 431.354C598.829 422.077 647.185 392.034 647.185 392.034L652.008 397.553C652.008 397.553 625.735 427.898 610.45 433.22C595.165 438.542 562.698 459.534 559.358 461.209C554.308 463.75 554.368 466.948 546.008 447.454Z" fill="#FFC6B2"/>
<path d="M524.232 430.36C524.232 430.36 503.638 437.033 503.638 468.366C503.638 468.366 503.651 511.278 508.505 519.085C514.351 520.305 520.387 520.305 526.233 519.085C536.547 516.96 546.531 509.36 546.531 509.36L562.731 460.732L560.793 437.944L538.767 433.692C538.767 433.692 545.085 463.215 522.225 450.523C517.782 448.06 528.761 431.307 528.761 431.307L524.232 430.36Z" fill="#22343D"/>
<path d="M506.807 455.843L496.659 434.704C496.659 434.704 498.114 421.885 516.743 417.285C516.743 417.285 518.627 423.749 520.692 426.219C522.757 428.689 528.768 431.319 528.768 431.319L506.807 455.843Z" fill="#22343D"/>
<path d="M545.171 464.339L577.439 457.726C577.439 457.726 583.05 446.104 569.747 432.278C569.747 432.278 544.577 433.798 541.319 434.069C538.112 434.335 540.314 436.805 540.314 436.805L545.171 464.339Z" fill="#22343D"/>
<path d="M508.453 508.632C508.453 508.632 477.932 565.053 472.89 575.135C472.89 575.135 562.932 616.492 599.484 566.711C599.484 566.711 578.692 522.711 546.549 505.958L532.683 501.806L508.995 508.361" fill="#22343D"/>
<path d="M555.639 411.807C555.639 411.807 559.115 408.33 561.254 410.736C563.393 413.142 553.5 416.619 553.5 416.619L555.639 411.807Z" fill="#FFC6B2"/>
<path d="M619.232 364.395C619.266 364.515 617.923 365.095 615.359 365.705C611.725 366.513 608.016 366.939 604.293 366.975C598.79 367.003 593.293 366.616 587.848 365.819C581.711 365.006 575.048 363.811 568.032 363.046C561.49 362.213 554.867 362.239 548.332 363.124C543.036 363.926 537.93 365.681 533.261 368.305C530.122 370.1 527.293 372.39 524.883 375.085C523.188 377.018 522.425 378.255 522.253 378.148C522.159 378.099 522.669 376.709 524.205 374.548C526.449 371.521 529.243 368.945 532.442 366.955C537.199 364.016 542.48 362.026 547.993 361.096C554.706 360.06 561.531 359.97 568.269 360.828C575.399 361.606 582.069 362.869 588.139 363.785C593.486 364.661 598.883 365.199 604.297 365.397C613.548 365.655 619.147 364.014 619.232 364.397" fill="#46A7D0"/>
<path d="M537.934 409.833C537.924 409.969 536.934 410.065 535.422 409.563C534.97 409.425 534.552 409.194 534.196 408.883C533.973 408.678 533.8 408.426 533.689 408.144C533.528 407.738 533.531 407.286 533.7 406.883C533.749 406.81 533.745 406.636 533.841 406.633L534.135 406.623C534.347 406.617 534.559 406.643 534.763 406.699C535.031 406.749 535.302 406.778 535.575 406.783C536.09 406.793 536.604 406.741 537.106 406.629C537.995 406.427 538.828 406.032 539.547 405.471C540.265 404.911 540.852 404.199 541.264 403.386C541.929 402.114 541.987 401.158 542.164 401.169C542.289 401.153 542.536 402.169 541.987 403.704C541.654 404.6 541.125 405.409 540.438 406.074C539.58 406.894 538.513 407.463 537.353 407.718C536.756 407.852 536.144 407.905 535.533 407.875C535.271 407.859 535.009 407.829 534.75 407.784C534.641 407.766 534.65 407.742 534.633 407.755C534.626 407.764 534.62 407.774 534.617 407.786C534.614 407.797 534.613 407.809 534.615 407.82C534.662 407.973 534.742 408.113 534.85 408.231C535.101 408.484 535.398 408.687 535.724 408.831C537.031 409.472 537.958 409.662 537.934 409.831" fill="#FF7B5B"/>
<path d="M530.696 410.209L542.583 414.892C542.583 414.892 532.136 422.094 530.696 410.209Z" fill="white"/>
<path d="M547.658 412.462C547.236 413.262 545.927 413.404 544.733 412.775C543.539 412.146 542.914 410.989 543.335 410.189C543.756 409.389 545.068 409.245 546.261 409.874C547.454 410.503 548.08 411.66 547.661 412.462" fill="#FFB2A0"/>
<path d="M534.392 405.429C534.032 406.26 532.737 406.501 531.5 405.965C530.263 405.429 529.55 404.322 529.911 403.49C530.272 402.658 531.565 402.419 532.803 402.955C534.041 403.491 534.753 404.598 534.393 405.429" fill="#FFB2A0"/>
<path d="M529.989 423.243C529.989 423.243 534.156 426.732 538.503 425.609C538.503 425.609 537.003 427.856 531.235 427.031C531.235 427.031 531.714 424.555 529.989 423.243" fill="#FFA192"/>
<path d="M546.518 404.998C546.518 405.184 546.463 405.366 546.359 405.521C546.256 405.676 546.109 405.797 545.936 405.868C545.764 405.94 545.575 405.958 545.392 405.922C545.209 405.886 545.042 405.796 544.91 405.664C544.778 405.532 544.688 405.365 544.652 405.182C544.616 404.999 544.634 404.81 544.706 404.638C544.777 404.465 544.898 404.318 545.053 404.215C545.208 404.111 545.39 404.056 545.576 404.056C545.826 404.056 546.065 404.155 546.242 404.332C546.419 404.509 546.518 404.748 546.518 404.998" fill="#22343D"/>
<path d="M538.811 402.222C538.811 402.408 538.755 402.59 538.652 402.744C538.549 402.899 538.402 403.02 538.23 403.091C538.058 403.162 537.869 403.18 537.686 403.144C537.504 403.108 537.336 403.018 537.205 402.886C537.073 402.755 536.983 402.587 536.947 402.405C536.911 402.222 536.929 402.033 537 401.861C537.072 401.69 537.192 401.543 537.347 401.439C537.501 401.336 537.683 401.28 537.869 401.28C538.119 401.28 538.358 401.379 538.535 401.556C538.712 401.733 538.811 401.972 538.811 402.222" fill="#22343D"/>
<path d="M549.544 402.489C549.253 402.612 548.691 401.932 547.844 401.382C547.007 400.807 546.164 400.549 546.164 400.234C546.136 399.934 547.315 399.687 548.464 400.455C549.613 401.223 549.834 402.398 549.544 402.489Z" fill="#775298"/>
<path d="M535.961 397.92C535.942 397.626 536.953 397.259 538.308 397.292C539.687 397.321 540.708 397.992 540.564 398.269C540.42 398.546 539.474 398.43 538.264 398.407C537.054 398.384 535.981 398.24 535.961 397.92Z" fill="#775298"/>
<path d="M540.206 687.82C540.206 687.82 545.151 705.369 550.256 703.932C555.361 702.495 551.523 678.005 551.523 678.005L546.429 669.955C546.429 669.955 551.214 710.955 540.206 687.82Z" fill="#22343D"/>
<path d="M602.557 590.531C602.557 590.531 606.157 586.608 610.511 585.955C614.865 585.302 630.452 583.448 632.74 585.518C635.028 587.588 620.111 594.53 620.111 594.53C620.111 594.53 625.311 591.218 623.151 589.987C619.336 587.806 602.557 590.531 602.557 590.531Z" fill="#22343D"/>
<path d="M596.375 595.229L601.253 605.129L603.915 603.654L597.409 593.899L596.375 595.229Z" fill="#22343D"/>
<path d="M541.826 662.185L529.852 672.976L533.4 675.933L543.452 664.994L541.826 662.185Z" fill="#22343D"/>
<path d="M291.483 554.758C288.078 546.308 286.769 536.901 281.683 529.339C274.375 518.459 260.33 513.061 254.397 501.37C251.876 496.405 251.086 490.725 251.059 485.158C251.011 474.142 254.309 462.432 262.818 455.433C272.595 447.385 287.265 447.501 298.717 452.905C310.169 458.309 318.917 468.117 326.35 478.363C333.783 488.609 340.301 499.6 348.959 508.832C355.381 515.677 362.999 521.581 367.837 529.623C381.099 551.671 367.454 579.567 344.037 587.523C323.464 594.513 298.593 572.423 291.475 554.755" fill="#22343D"/>
<path d="M262.175 710.258C264.211 711.932 261.99 710.773 264.952 712.702C264.291 720.102 257.446 724.763 257.446 724.763C257.446 724.763 257.157 736.543 254.958 736.301C252.759 736.059 254.166 724.957 254.166 724.957C254.166 724.957 249.66 736.557 247.753 735.821C245.846 735.085 252.746 721.771 252.746 721.771C252.746 721.771 243.077 735.077 241.746 732.979C240.415 730.881 248.927 718.043 248.927 718.043C248.927 718.043 238.426 729.055 237.239 727.273C236.052 725.491 249.775 710.18 249.775 710.18C243.424 710.11 243.874 705.788 243.874 705.788L259.343 706.705C260.183 707.968 261.131 709.157 262.175 710.258" fill="#FFC6B2"/>
<path d="M409.954 488.092C412.601 488.556 410.547 487.68 413.981 488.678C419.625 483.554 418.874 475.502 418.874 475.502C418.874 475.502 428.335 467.916 426.766 466.434C425.197 464.952 416.981 472.942 416.981 472.942C416.981 472.942 423.658 462.334 421.862 461.379C420.066 460.424 413.481 473.879 413.481 473.879C413.481 473.879 418.325 458.372 415.779 458.697C413.233 459.022 408.041 473.375 408.041 473.375C408.041 473.375 410.483 458.682 408.286 458.915C406.089 459.148 402.531 478.392 402.531 478.392C397.351 474.179 393.725 476.877 393.725 476.877L405.063 487.992C406.694 487.929 408.327 487.962 409.954 488.092" fill="#FFC6B2"/>
<path d="M345.194 552.425C349.98 551.678 364.573 561.134 360.856 580.338C360.546 581.95 358.44 585.5 357.915 586.967C357.252 588.826 362.415 595.631 362.415 595.631L349.091 599.884C348.523 595.859 349.479 589.976 345.173 588.228C343.52 587.687 341.899 587.052 340.318 586.328C336.218 584.087 334.024 579.185 332.338 575.173C330.977 572.196 330.234 568.974 330.156 565.702C330.245 557.509 337.502 553.627 345.194 552.425Z" fill="#FFC6B2"/>
<path d="M371.882 605.019C371.882 598.106 369.69 595.468 362.434 595.468C355.178 595.468 345.601 598.106 345.601 605.019C345.601 611.932 350.724 620.583 357.983 620.583C365.242 620.583 371.883 611.932 371.883 605.018" fill="#FFC6B2"/>
<path d="M366.152 592.117C366.152 592.117 388.712 568.859 393.225 546.076C397.738 523.293 405.408 486.326 405.408 486.326L413.982 488.677C413.982 488.677 418.045 539.2 413.982 546.936C409.919 554.672 386.907 608.407 387.359 622.161L366.152 592.117Z" fill="#FFC6B2"/>
<path d="M325.937 603.379C325.937 603.379 318.266 604.668 306.537 631.321C294.808 657.974 258.702 707.589 258.702 707.589L264.569 712.989C264.569 712.989 299.769 686.77 306.533 670.866C313.297 654.962 321.874 635.189 325.933 636.046C329.992 636.903 347.145 613.264 325.937 603.379Z" fill="#FFC6B2"/>
<path d="M386.337 625.716L396.842 596.725C396.842 596.725 395.221 583.128 374.487 578.254L362.742 595.174L386.337 625.716Z" fill="#46A7D0"/>
<path d="M329.439 601.154C329.439 601.154 317.045 602.198 307 624.259C307 624.259 318.047 639.509 326.129 640.023C326.129 640.023 356.146 614.369 329.438 601.154" fill="#46A7D0"/>
<path d="M363.492 862.773C363.492 862.773 345.602 899.301 343.51 892.542C341.418 885.783 342.11 869.53 343.232 867.211C344.354 864.892 351.672 854.642 351.672 854.642L363.492 862.773Z" fill="#FFC6B2"/>
<path d="M364.858 689.112L381.219 682.858C381.219 682.858 429.771 768.634 429.571 792.432C429.371 816.23 362.885 863.876 362.885 863.876L351.671 854.642C351.671 854.642 383.184 808.315 394.156 796.293C399.643 790.281 360.362 760.818 354.412 732.468C348.462 704.118 364.858 689.112 364.858 689.112Z" fill="#22343D"/>
<path d="M266.49 843.638C266.49 843.638 233.026 868.302 234.417 861.38C235.808 854.458 244.238 840.313 246.351 838.74C248.464 837.167 259.893 831.253 259.893 831.253L266.49 843.638Z" fill="#FFC6B2"/>
<path d="M320.346 719.486L368.75 691.437C368.75 691.437 370.671 788.871 359.05 809.937C347.429 831.003 265.421 844.352 265.421 844.352L259.892 831.252C259.892 831.252 310.492 801.11 326.023 795.211C341.554 789.312 320.346 719.486 320.346 719.486" fill="#22343D"/>
<path d="M349.174 672.251C349.174 672.251 313.533 684.869 320.347 719.487C327.161 754.105 338.515 760.594 338.515 760.594L358.955 727.06L379.475 683.144L358.954 680.544L349.174 672.251Z" fill="#22343D"/>
<path d="M366.152 592.118C374.225 597.233 380.867 604.314 385.456 612.697C390.045 621.08 392.431 630.491 392.39 640.048C392.39 640.048 389.056 677.927 383.654 686.203C377.14 687.498 370.436 687.498 363.922 686.203C352.444 683.955 341.333 675.887 341.333 675.887L332.366 629.511L325.39 602.433L329.172 601.186L348.907 599.018C348.907 599.018 346.072 628.494 368.107 613.857C372.749 610.774 362.33 595.404 362.33 595.404L366.152 592.118Z" fill="#46A7D0"/>
<path d="M382.213 466.563L437.23 498.653L468.178 440.205L416.599 411.553L382.213 466.563Z" fill="white"/>
<path d="M458.751 746.355L498.099 721.999L465.591 665.263L429.622 688.584L458.751 746.355Z" fill="white"/>
<path d="M265.013 504.589C265.113 504.496 266.332 505.599 268.253 507.848C270.951 511.05 273.342 514.499 275.395 518.148C278.464 523.569 280.845 529.352 282.482 535.363C284.405 542.09 285.694 549.651 288.649 556.935C290.118 560.449 292 563.775 294.256 566.844C296.413 569.669 298.844 572.274 301.515 574.62C306.117 578.553 311.374 581.647 317.046 583.761C320.886 585.194 324.887 586.149 328.96 586.604C331.85 586.924 333.484 586.971 333.486 587.161C333.494 587.28 331.865 587.528 328.897 587.471C324.687 587.342 320.519 586.594 316.526 585.251C310.564 583.273 305.023 580.2 300.188 576.189C297.357 573.785 294.784 571.093 292.509 568.157C290.116 564.956 288.126 561.472 286.584 557.784C283.505 550.171 282.284 542.542 280.498 535.905C278.988 530.01 276.81 524.306 274.007 518.905C272.108 515.253 269.956 511.737 267.567 508.384C265.877 505.994 264.886 504.701 265.013 504.589Z" fill="#22343D"/>
<path d="M332.606 467.045C333.006 466.983 333.406 472.398 336.433 480.408C338.211 485.075 340.562 489.503 343.433 493.589C345.134 495.993 346.998 498.277 349.013 500.425C351.103 502.697 353.38 505.004 355.531 507.592C359.846 512.815 362.814 518.461 365.609 523.444C368.199 527.884 370.25 532.618 371.718 537.544C372.709 540.909 373.005 544.441 372.587 547.924C372.199 550.373 371.587 551.613 371.487 551.579C371.294 551.529 371.609 550.218 371.719 547.846C371.79 544.498 371.277 541.162 370.202 537.99C368.558 533.262 366.416 528.721 363.814 524.445C360.927 519.522 357.932 513.99 353.814 509.012C351.745 506.521 349.501 504.222 347.398 501.894C345.339 499.654 343.448 497.267 341.739 494.75C338.853 490.479 336.568 485.832 334.948 480.938C333.846 477.661 333.087 474.279 332.683 470.845C332.405 468.414 332.48 467.057 332.606 467.045Z" fill="#22343D"/>
<path d="M349.474 573.299C349.453 573.143 350.349 572.999 351.195 572.007C351.394 571.797 351.529 571.534 351.583 571.249C351.553 570.947 351.41 570.668 351.183 570.466C351.06 570.348 350.912 570.26 350.75 570.206C350.589 570.153 350.417 570.136 350.248 570.158C349.848 570.187 349.369 570.384 348.739 570.478C348.153 570.518 347.566 570.429 347.018 570.217C346.47 570.004 345.976 569.674 345.571 569.249C344.932 568.669 344.361 568.017 343.871 567.307C343.05 566.091 342.789 565.213 342.92 565.148C343.066 565.07 343.563 565.797 344.489 566.817C345.03 567.409 345.614 567.959 346.236 568.465C346.546 568.767 346.915 569.003 347.318 569.159C347.722 569.315 348.153 569.388 348.586 569.373C349.028 569.316 349.542 569.11 350.169 569.068C350.49 569.044 350.813 569.092 351.113 569.207C351.414 569.323 351.685 569.504 351.907 569.737C352.116 569.945 352.277 570.196 352.381 570.472C352.485 570.748 352.527 571.043 352.507 571.337C352.406 571.816 352.143 572.246 351.763 572.555C350.55 573.617 349.438 573.443 349.477 573.299" fill="#FF7B5B"/>
<path d="M355.976 574.214L345.409 578.056C345.409 578.056 354.374 585.898 355.976 574.214Z" fill="white"/>
<path d="M344.354 573.56C344.776 574.36 344.154 575.521 342.954 576.148C341.754 576.775 340.454 576.637 340.029 575.835C339.604 575.033 340.229 573.875 341.429 573.247C342.629 572.619 343.932 572.753 344.354 573.56Z" fill="#FFB2A0"/>
<path d="M356.881 567.137C357.227 567.975 356.496 569.069 355.251 569.584C354.006 570.099 352.713 569.839 352.367 569.001C352.021 568.163 352.752 567.069 353.999 566.554C355.246 566.039 356.535 566.299 356.881 567.137Z" fill="#FFB2A0"/>
<path d="M345.721 588.514C348.401 588.925 351.137 588.787 353.762 588.108C352.113 589.545 350.079 590.47 347.912 590.768C347.384 589.843 346.63 589.068 345.721 588.514" fill="#FFA192"/>
<path d="M349.333 564.764C349.475 564.884 349.578 565.044 349.629 565.223C349.68 565.402 349.677 565.592 349.62 565.769C349.563 565.946 349.455 566.103 349.309 566.218C349.163 566.334 348.986 566.404 348.801 566.419C348.616 566.434 348.43 566.394 348.267 566.304C348.104 566.214 347.972 566.077 347.887 565.912C347.802 565.746 347.768 565.559 347.789 565.374C347.81 565.189 347.886 565.015 348.006 564.873C348.086 564.779 348.184 564.701 348.294 564.644C348.404 564.588 348.524 564.554 348.647 564.544C348.77 564.533 348.894 564.548 349.012 564.585C349.13 564.623 349.239 564.684 349.333 564.764" fill="#22343D"/>
<path d="M342.233 568.849C342.375 568.969 342.478 569.129 342.529 569.308C342.58 569.487 342.577 569.677 342.52 569.854C342.463 570.031 342.355 570.188 342.209 570.303C342.063 570.419 341.886 570.489 341.701 570.504C341.516 570.519 341.33 570.479 341.167 570.389C341.004 570.299 340.872 570.162 340.787 569.997C340.702 569.831 340.668 569.644 340.689 569.459C340.71 569.274 340.786 569.1 340.906 568.958C340.986 568.864 341.084 568.786 341.194 568.729C341.304 568.673 341.424 568.639 341.547 568.628C341.67 568.618 341.794 568.633 341.912 568.67C342.03 568.708 342.139 568.769 342.233 568.849" fill="#22343D"/>
<path d="M349.375 560.834C349.281 561.134 348.399 561.125 347.43 561.419C346.452 561.682 345.71 562.159 345.47 561.953C345.221 561.781 345.796 560.721 347.123 560.346C348.45 559.971 349.493 560.555 349.375 560.834Z" fill="#22343D"/>
<path d="M337.109 568.242C336.872 568.067 337.239 567.06 338.146 566.047C339.059 565.014 340.228 564.67 340.35 564.96C340.472 565.25 339.769 565.893 338.968 566.8C338.167 567.707 337.365 568.435 337.109 568.242Z" fill="#22343D"/>
<path d="M333.124 576.087C333.124 576.087 329.735 573.238 328.11 575.816C326.485 578.394 335.43 579.747 335.43 579.747L333.124 576.087Z" fill="#FFC6B2"/>
<path d="M251.635 835.623C251.635 835.623 246.772 837.735 245.51 839.004C244.248 840.273 232.623 860.335 234.102 862.87C235.581 865.405 247.233 856.801 247.233 856.801C247.233 856.801 237.483 858.647 251.635 835.623Z" fill="#46A7D0"/>
<path d="M346.445 862.156C346.445 862.156 342.994 865.886 342.462 867.599C341.93 869.312 340.976 892.475 343.462 894.031C345.948 895.587 352.751 882.805 352.751 882.805C352.751 882.805 344.623 889.172 346.445 862.21" fill="#46A7D0"/>
<defs>
<linearGradient id="paint0_linear_1_3" x1="510.84" y1="6.10352e-05" x2="510.84" y2="1226.15" gradientUnits="userSpaceOnUse">
<stop stop-color="#1DB7F9" stop-opacity="0.776"/>
<stop offset="1" stop-color="#FFF4E5" stop-opacity="0"/>
</linearGradient>
</defs>
</svg>
